<svg viewBox="0 0 48 48" xmlns="http://www.w3.org/2000/svg"><style>.a{fill:none;stroke-linejoin:round;stroke-width:0.7;stroke:#303030;}</style><polyline points=" 23.4 27.9 23.4 30.8 23.4 34.7 24 38.2 24.6 34.7 24.6 30.8 24.6 27.9 " class="a"/><path d="M32.1 27.9c0-0.1 0-0.2 0-0.2 0-0.4-0.1-0.8-0.3-1.2 -0.2-0.4-0.4-0.7-0.7-1 -0.2-0.2-0.5-0.4-0.8-0.6 -0.3-0.2-0.6-0.2-0.9-0.3 -0.9-0.3-1.7-0.8-2.3-1.6 -0.3-0.3-0.2-0.7-0.2-1.1 0-0.3 0-0.6 0-0.8 0-0.3 0-0.7 0-1 0-0.4 0-0.8 0-1.1 0-0.4 0-0.8 0-1.2 0-0.4 0-0.8 0-1.1 0-0.3 0-0.7 0-1 0-0.3 0-0.5 0-0.8 0-0.2 0-0.4 0-0.6 0-0.1 0.1-0.2 0.2-0.3 0.1-0.1 0.2-0.2 0.3-0.3 0.2-0.2 0.4-0.4 0.6-0.5 0.2-0.1 0.4-0.2 0.6-0.3 0.2-0.1 0.4-0.1 0.5-0.2 0.2 0 0.3-0.1 0.5-0.2 0.2-0.2 0.3-0.4 0.4-0.6 0.1-0.1 0.1-0.3 0.1-0.5 0-0.7-0.6-1.3-1.3-1.3h-1.8 -5.9 -1.7c-0.7 0-1.3 0.6-1.3 1.3 0 0.5 0.3 1 0.8 1.2 0.1 0 0.2 0.1 0.3 0.1 0.3 0 0.5 0.2 0.7 0.3 0.2 0.1 0.4 0.3 0.6 0.5 0.1 0.1 0.2 0.3 0.4 0.4 0.1 0.1 0.2 0.3 0.2 0.5 0 0.3 0 0.5 0 0.8 0 0.3 0 0.6 0 0.9 0 0.4 0 0.7 0 1.1 0 0.4 0 0.8 0 1.2 0 0.4 0 0.8 0 1.2 0 0.4 0 0.7 0 1.1 0 0.3 0 0.6 0 1 0 0.2 0 0.5 0 0.7 0 0.3 0 0.5-0.1 0.7 -0.6 0.9-1.6 1.5-2.6 1.8 -0.6 0.2-1 0.4-1.4 0.8 -0.6 0.6-0.9 1.4-0.9 2.3 0 0.1 0 0.2 0 0.2H32.1z" fill="#E52046"/><path d="M32.1 27.9c0-0.1 0-0.2 0-0.2 0-0.4-0.1-0.8-0.3-1.2 -0.2-0.4-0.4-0.7-0.7-1 -0.2-0.2-0.5-0.4-0.8-0.6 -0.3-0.2-0.6-0.2-0.9-0.3 -0.9-0.3-1.7-0.8-2.3-1.6 -0.3-0.3-0.2-0.7-0.2-1.1 0-0.3 0-0.6 0-0.8 0-0.3 0-0.7 0-1 0-0.4 0-0.8 0-1.1 0-0.4 0-0.8 0-1.2 0-0.4 0-0.8 0-1.1 0-0.3 0-0.7 0-1 0-0.3 0-0.5 0-0.8 0-0.2 0-0.4 0-0.6 0-0.1 0.1-0.2 0.2-0.3 0.1-0.1 0.2-0.2 0.3-0.3 0.2-0.2 0.4-0.4 0.6-0.5 0.2-0.1 0.4-0.2 0.6-0.3 0.2-0.1 0.4-0.1 0.5-0.2 0.2 0 0.3-0.1 0.5-0.2 0.2-0.2 0.3-0.4 0.4-0.6 0.1-0.1 0.1-0.3 0.1-0.5 0-0.7-0.6-1.3-1.3-1.3h-1.8 -5.9 -1.7c-0.7 0-1.3 0.6-1.3 1.3 0 0.5 0.3 1 0.8 1.2 0.1 0 0.2 0.1 0.3 0.1 0.3 0 0.5 0.2 0.7 0.3 0.2 0.1 0.4 0.3 0.6 0.5 0.1 0.1 0.2 0.3 0.4 0.4 0.1 0.1 0.2 0.3 0.2 0.5 0 0.3 0 0.5 0 0.8 0 0.3 0 0.6 0 0.9 0 0.4 0 0.7 0 1.1 0 0.4 0 0.8 0 1.2 0 0.4 0 0.8 0 1.2 0 0.4 0 0.7 0 1.1 0 0.3 0 0.6 0 1 0 0.2 0 0.5 0 0.7 0 0.3 0 0.5-0.1 0.7 -0.6 0.9-1.6 1.5-2.6 1.8 -0.6 0.2-1 0.4-1.4 0.8 -0.6 0.6-0.9 1.4-0.9 2.3 0 0.1 0 0.2 0 0.2H32.1z" class="a"/><line x1="22.5" x2="22.5" y1="14.6" y2="19.2" class="a"/><line x1="22.5" x2="22.5" y1="20.4" y2="21.1" class="a"/></svg>